<?xml version="1.0" encoding="UTF-8"?>
<svg id="Capa_1" xmlns="http://www.w3.org/2000/svg" xmlns:xlink="http://www.w3.org/1999/xlink" version="1.1" viewBox="0 0 180 180">
  <!-- Generator: Adobe Illustrator 30.0.0, SVG Export Plug-In . SVG Version: 2.1.1 Build 123)  -->
  <defs>
    <style>
      .st0 {
        fill: none;
      }

      .st1 {
        fill: #fff;
      }

      .st2 {
        fill: url(#Degradado_sin_nombre_77);
      }

      .st3 {
        clip-path: url(#clippath);
      }
    </style>
    <clipPath id="clippath">
      <rect class="st0" x="-14.3" y="24.7" width="193.9" height="193.9"/>
    </clipPath>
    <linearGradient id="Degradado_sin_nombre_77" data-name="Degradado sin nombre 77" x1="73.2" y1="94.6" x2="171.4" y2="71.8" gradientUnits="userSpaceOnUse">
      <stop offset=".4" stop-color="#00a19a"/>
      <stop offset=".7" stop-color="#f6a01a"/>
      <stop offset=".7" stop-color="#f49020"/>
      <stop offset="1" stop-color="#e5095d"/>
    </linearGradient>
  </defs>
  <g class="st3">
    <g>
      <rect class="st0" x="-14.3" y="24.7" width="193.9" height="193.9" rx="37" ry="37"/>
      <g>
        <path class="st0" d="M94.7,81.8h38.2c15.5,0,28.1,12.6,28.1,28.1v36.5h-15.7v-36.5c0-.4,0-.7,0-1.1l-38.2,37.6c.1,0,.3,0,.4,0h37.9v14.8h-37.9c-15.5,0-28.4-12.7-28.4-28.2v-36.4h15.7v36.4c0,.7,0,1.4.2,2.1l39.1-38.4c-.3,0-.7,0-1,0h-38.2v-14.8Z"/>
        <path class="st0" d="M56.1,158.4L.8,96.6h22.2l32.4,36.3v-36.3h16.6v55.7c0,8.4-10.4,12.4-16,6.1Z"/>
      </g>
    </g>
  </g>
  <g>
    <path class="st1" d="M1.8,112.6c5,3,11.2,1.4,15.7-1.8,1.5-1,3-2.3,4.3-3.6.6-.5,1.4-1.5,1.9-2.1,0,0,.9-1.1.9-1.1,1.2-1.4,2.4-3.1,3.4-4.6,1.5-2.3,3.2-5.1,4.6-7.5,2.9-4.7,6.1-9.3,9.7-13.5,9.5-11.3,22.6-21.5,38.1-21.8,18.2-.3,30.8,7.3,36.5,25.1,2.5,7.8,1.5,16.5-2.3,23.7-3.7,6.8-9.2,12.5-15.6,16.7-.7.4-1.5.9-2.3,1.2,0,0,.4-.3.4-.3-.2.2-.4.3-.6.4-.3,0-.2.1-.9.2-.3.1-1.5-.5-1.7-1-.3-.6-.3-.7-.3-1,0-.9.5-1.7.9-2.4.8-1.6,1.5-3.2,2.1-4.8,2-5.5,2.9-12.1-.4-17.2-3.8-5.7-10.4-7.2-16.6-4.9-3.2,1.1-6.6,3.5-7.7,6.5-1.3,3.9-2.2,8-2.1,12.1,0,5.3,2.1,10.2,5.7,14.1,3.7,4,8.5,6.9,13.4,9.4,0,0-1.4,3.8-1.4,3.8-2.4-.6-4.8-1.4-7.2-2.4-7.5-3.2-14-8.5-17.1-16.3-3-7.4-2.3-15.6,0-23.1,2.7-9.5,13.7-14.2,22.9-12.8,4.8.7,9.4,3.1,12.7,6.7,7.6,8.3,4,19.6.1,28.7-.3.7-1,2.2-1.2,2.8,0,0,0,0,0,0h0c0-.2,0-.3,0-.5,0-.3,0-.3-.3-1-.1-.5-1.3-1.1-1.6-.9-.6,0-.5,0-.8.1-.1,0-.2,0-.2.1,0,0,0,0,0,0h0s0,0,0,0c.9-.5,1.7-1,2.5-1.7,7.5-6.4,12.8-17.4,12.9-27.2,0,0,0-1.3,0-1.3,0-.4-.1-1.5-.2-1.9,0-.3-.1-.9-.2-1.2-.2-.6-.3-1.2-.5-1.8,0,0-.2-.6-.2-.6v-.3c-3.6-10.4-10-17.1-21.1-18.9-2.2-.4-4.5-.6-6.8-.7-2.2-.1-4.3,0-6.5.4-16.8,3.2-30.2,18.7-39.5,32.2-.8,1.1-1.8,2.6-2.7,3.7-.8,1.1-2,2.5-2.9,3.6-.5.6-1.5,1.7-2.1,2.3,0,0-1.1,1.1-1.1,1.1l-1.1,1c-.5.5-.7.6-1.2,1,0,0-.6.5-.6.5-.2.2-.4.3-.6.5-.9.7-2.2,1.6-3.2,2.2-4.6,2.8-10.6,4.4-15.8,2.2-1-.4-1.9-.9-2.7-1.6,0,0,.6-.8.6-.8h0Z"/>
    <path class="st2" d="M71.8,47.1c10.4,4.9,22.8,2.4,32.3-3.4,1.4-.9,2.9-1.8,4.2-2.8,2.5-1.8,5-3.6,7.8-5.1,11.8-6.5,20.8-5.8,30.4,4,5.9,5.8,10.7,12.8,17.9,17,2.3,1.4,5,2.2,7.5,3.4,0,0,0,3.2,0,3.2-9,2.1-16.7,6.3-21.9,14-3.4,4.9-5.7,11-7.4,16.9-1.3,4.2-2.8,8.4-4.4,12.5-1.4,3.5-2.9,7-4.7,10.4-1.7,3.3-3.6,6.6-6.1,9.4-4.9,5.3-11.9,8.6-18.6,10.2-5.1,1.2-10.3,1.5-15.3,1.2l-.2-3c3.5-.7,7-1.6,10.4-2.7,3.2-1.1,6.5-2.6,9.3-4.3,2.8-1.7,5.3-3.7,7.4-6.2,2-2.5,3.3-5.4,4.7-8.5,3-7,5.6-14.5,7.8-21.8,2.7-9.7,7.5-19.3,15.8-25.3,6.5-4.8,15-6.9,23-5.9,0,0,0,3.2,0,3.2-2.5,1-5.1,1.4-7.9,1.1-4.2-.4-8-2.8-11.2-5.4-3.9-3.1-7.3-6.8-10.5-10.5-2.1-2.4-4.4-5.1-6.7-6.8-4.9-3.9-10.9-2.2-16.2.2-2.6,1.1-5.1,2.6-7.5,4-10,6.1-22.6,9.4-34.1,5.6-2.2-.7-4.3-1.7-6.3-3-.1,0-.3-.2-.4-.3l.8-1.2h0Z"/>
  </g>
</svg>